/* XPM */
static char *Dolphin[] = {
/* columns rows colors chars-per-pixel */
"64 64 226 2 ",
"   c #010F1D",
".  c #0C1A29",
"X  c #131D29",
"o  c #000D33",
"O  c #021235",
"+  c #041A3C",
"@  c #011338",
"#  c #17232E",
"$  c #192733",
"%  c #172837",
"&  c #152538",
"*  c #0A203C",
"=  c #26313C",
"-  c #061E41",
";  c #081F40",
":  c #0C2444",
">  c #142A42",
",  c #122C4A",
"<  c #172B42",
"1  c #17304D",
"2  c #1C334C",
"3  c #1F3044",
"4  c #152F52",
"5  c #193453",
"6  c #1A3556",
"7  c #243443",
"8  c #2D3A45",
"9  c #22344B",
"0  c #23394C",
"q  c #2B3C4A",
"w  c #293640",
"e  c #313F4A",
"r  c #243C55",
"t  c #283D57",
"y  c #1E3B6E",
"u  c #233F63",
"i  c #2E414F",
"p  c #30414E",
"a  c #3A4041",
"s  c #2B425C",
"d  c #2E4053",
"f  c #334453",
"g  c #384653",
"h  c #33465C",
"j  c #34495B",
"k  c #3C4C5B",
"l  c #3B4956",
"z  c #2A4667",
"x  c #344B64",
"c  c #314A69",
"v  c #3B4C60",
"b  c #3E5266",
"n  c #3A526C",
"m  c #2B4776",
"M  c #3B587B",
"N  c #324E74",
"B  c #414F5B",
"V  c #41515D",
"C  c #4D5A65",
"Z  c #4C5B6B",
"A  c #455666",
"S  c #535F6F",
"D  c #445B71",
"F  c #4C5E74",
"G  c #485E79",
"H  c #4F616F",
"J  c #54636E",
"K  c #4D6475",
"L  c #546473",
"P  c #5A6975",
"I  c #5D6B7C",
"U  c #55677A",
"Y  c #626D74",
"T  c #606E78",
"R  c #66717B",
"E  c #3B5D81",
"W  c #3A5581",
"Q  c #304C83",
"!  c #425B8E",
"~  c #455C97",
"^  c #596C82",
"/  c #50648C",
"(  c #5D728A",
")  c #486996",
"_  c #576D96",
"`  c #5C7798",
"'  c #637381",
"]  c #6C7884",
"[  c #62768A",
"{  c #6D7C8D",
"}  c #667888",
"|  c #727F8F",
" . c #6D7E93",
".. c #61799A",
"X. c #727F93",
"o. c #546CAA",
"O. c #5973AC",
"+. c #4F68AE",
"@. c #637AA2",
"#. c #6A7FA8",
"$. c #637DB8",
"%. c #5B79CC",
"&. c #627CC4",
"*. c #72818D",
"=. c #7C848C",
"-. c #6B8195",
";. c #6F819A",
":. c #738599",
">. c #7C8C9D",
",. c #788796",
"<. c #7F909E",
"1. c #7B8DA3",
"2. c #768BA7",
"3. c #6A81B5",
"4. c #788DBA",
"5. c #7C90B9",
"6. c #748BA5",
"7. c #778FCD",
"8. c #7391C8",
"9. c #848D96",
"0. c #8C959D",
"q. c #85929E",
"w. c #8392A2",
"e. c #8B9AA6",
"r. c #8498AA",
"t. c #8C9DAC",
"y. c #8797A9",
"u. c #949CA4",
"i. c #929EAD",
"p. c #879BB5",
"a. c #939FB4",
"s. c #9AA4AB",
"d. c #98A2AA",
"f. c #8DA2B4",
"g. c #8EA3BA",
"h. c #93A3B3",
"j. c #9DABB4",
"k. c #9DACBC",
"l. c #95A7B8",
"z. c #A4ADB5",
"x. c #A4ADB7",
"c. c #A4B1BC",
"v. c #AAB4BB",
"b. c #ADB4B9",
"n. c #B3B8BD",
"m. c #B4B6B9",
"M. c #A0A3A7",
"N. c #879EC7",
"B. c #8AA6C6",
"V. c #95ADC4",
"C. c #9AADC2",
"Z. c #95ADCA",
"A. c #96A6C6",
"S. c #9CB1C2",
"D. c #9CB4C9",
"F. c #94ADD2",
"G. c #A0AFCB",
"H. c #A2B5C3",
"J. c #ACBAC5",
"K. c #A6BBCE",
"L. c #AAB9C8",
"P. c #B4BEC5",
"I. c #B4BECA",
"U. c #ABBBD1",
"Y. c #A5B8D6",
"T. c #B2BED3",
"R. c #BBC4CD",
"E. c #B9C2C9",
"W. c #ADC3DB",
"Q. c #B4C5DC",
"!. c #BACCDD",
"~. c #B8C7D5",
"^. c #AEC4E0",
"/. c #B7CDE4",
"(. c #B9CEE5",
"). c #BDD3E9",
"_. c #C6CACE",
"`. c #C4C8CB",
"'. c #C2CDD5",
"]. c #CACED3",
"[. c #C3CFDB",
"{. c #CCD1D5",
"}. c #CDD5DC",
"|. c #C6D0D9",
" X c #D3D7DB",
".X c #D4DBDE",
"XX c #DBDDDE",
"oX c #D1D4D7",
"OX c #CAD5E1",
"+X c #C0D6EA",
"@X c #CBDDED",
"#X c #C4D5E4",
"$X c #D2DBE3",
"%X c #C9DDF1",
"&X c #C5DCF0",
"*X c #CAE0EE",
"=X c #DDE1E4",
"-X c #D3E1E8",
";X c #CFE5F5",
":X c #D2E6F4",
">X c #E1E4E6",
",X c #E3E6E9",
"<X c #E7E9EA",
"1X c #ECECEC",
"2X c #F2F0EF",
"3X c #EEEFF0",
"4X c #E0EAF0",
"5X c #F4F4F4",
"6X c #F8F7F6",
"7X c #F9F8F7",
"8X c #F7F7F8",
"9X c #F7F8F9",
"0X c #F8F8F8",
"qX c #F9F9F9",
"wX c #F8F8F9",
"eX c #FAFAFA",
"rX c #FBFBFB",
"tX c #FAFBFB",
"yX c #FAFAF9",
"uX c #FDFDFD",
"iX c #FCFCFC",
"pX c #FEFEFE",
"aX c #FFFFFF",
"sX c #FFFFFE",
"dX c #FEFDFC",
"fX c #FCFCFC",
/* pixels */
"aXaX<XaXaX<X8XaX<X8XaX<X<XaX8X<XaXaX<XaXaX<X8XaX<X8XaX2X<XaX8X<XaXaX<XaXaX<X8XaX<X8XaX2X<XaX8X<XaXaX<XaXaX<X8XaX<X8XaX<X<XaX8X<X",
"aX8X8X8X8X8X8XaX8X8X8X8X8X8X8X8X8X8X8X8X8X8X8XaX8X8XaX8X8X8X8X8XaX8X8X8X8X8X8XaX8X8XaX8X8XaX8X8X8X8X8X8X8X8X8XaX8X8X8X8X8X8X8X8X",
"<X8XaX<X<XaX8X<XaXaX<XaXaX<X8XaX<X8XaX<X<XaX8X<XaXaX<XaXaX<X8XaX<X8XaX<X<XaX8X<XaXaX<XaXaX<X8XaX<X8XaX<X<XaX8X<XaXaX<XaXaX<X8XaX",
"aX8X<XaXaX<X8XaX8X8XaX8X8XaX8X8XaX8X<X8XaX<X8XaX8X8XaX8X8XaX8X<XaX8X<X8XaX<X8XaX8X8XaX8X8XaX8X2XaX8X<XaXaX<X8XaX8X8XaX8X8XaX8X8X",
"aX8X<XaXaX<X8XaX<X8XaX8X3XaX8X<XaX8X<XaXaX<X8XaX<X8XaX8X2XaX8X<XaX8X<XaXaX<X8XaX<X8XaX8X3XaX8X<XaX8X<XaXaX<X8XaX<X8XaX8X2XaX8X<X",
"<X8XaX<X<XaX8X<XaXaX<XaXaX<X8XaX<X8XaX<X<XaX8X<XaXaX<XaXaX<X8XaX<X8XaX<X<XaX8X<XaXaX<XaXaX<X8XaX<X8XaX<X<XaX8X<XaXaX<XaXaX<X8XaX",
"8X8X8X8X8X8X8X8X8X8X8X8X8X8X8X8X8X8X8X8X8X8X8X8X8X8X8X8X8X8X8X8X8X8X8X8X8X8X8X8X8X8X8X8X8X8X8X8X8X8X8X8X8X8X8X8X8X8X8X8X8X8X8X8X",
"aXaX<XaXaX<X8XaX<X8XaX2X<XaX8X<XaXaX<XaXaX<X8XaX<X8XaX8X<XaX8X<XaXaX<XaXaX<X8XaX<X8XaX<X<XaX8X<XaXaX<XaXaX<X8XaX<X8XaX2X<XaX8X<X",
"<X8XaX8X<XaX8X<XaX8X<XaXaX<X8XaX<X8XaX8X<XaX8X<XaX8X<XaXaX<X8XaX<X8XaX<X<XaX8X<XaXaX<XaXaX<X8XaX<X8XaX8X<XaX8X<XaX8X<XaXaX<X8XaX",
"8X8XaX8X8XaX8X8X8X8X8X8X8X8X8XaX8X8XaX8X8XaX8X8X8X8X8X8X8X8X8XaX8X8XaX8X8XaX8X8XaX8X8X8X8X8X8XaX8X8XaX8X8XaX8X8X8X8X8X8X8X8X8XaX",
"aXaX<XaXaX<X8XaX<X8XaX<X<XaX8X<XaXaX<XaXaX<X8XaX<X8XaX<X<XaX8X<XaXaX<XaXaX<X8XaX<X8XaX<X<XaX8X<XaXaX<XaXaX<X8XaX<X8XaX<X<XaX8X<X",
"2X8XaX8X8XaX8X8XaX8X<XaXaX<X8XaX<X8XaX8X8XaX8X<XaX8X<XaXaX<X8XaX8X8XaX8X8XaX8X2XaX8X<X8XaX<X8XaX8X8XaX8X8XaX8X3XaX8X<XaXaX<X8XaX",
"<X8XaX8X2XaX8X<XaX8X<XaXaX<X8XaX<X8XaX8X<XaX8X<XaX8X<XaXaX<X8XaX<X8XaX8X<XaX8X<XaX8X<X8XaX<X8XaX<X8XaX8X2XaX8X<XaX8X<XaXaX<X8XaX",
"aX8X<XaXaX<X8XaX<X8XaX<X<XaX8X<XaX8X<XaXaX<X8XaX<X8XaX<X<XaX8X<XaXaX<XaXaX2XaXaX8X8XaX8X8XaXaX8XaXaX<XaXaX<X8XaX<X8XaX<X<XaX8X<X",
"8X8X8X8X8X8X8X8X8X8X8X8X8X8X8X8X8XaX8X8XaXaX8X8X8X8X8X8XaXaXaXaX8X<X<X=X$X}.|.R.J.J.J.x.z.v.v.v.`.oX>XaXaX8X8X8X8X8X8X8X8X8X8X8X",
"<X8XaX<X<XaX8X<XaXaX<XaXaX<X8XaX3X{ C C 9.<XaX8XaXaX2XaX<X_.`.E.x.k.C.V.V.D.V.B.V.V.S.D.D.D.D.S.f.e.q.u.E.aXaX<XaXaX<XaXaX<X8XaX",
"aXaX<XaXaX<X8XaX<X8XaX8X<XaX8X<XaXy.3 I f l 0.XXXX=X~.k.t.r.f.f.g.g.g.g.p.:.-.-.} }  .:.>.>.r.l.S.L.L.t.*.,._.aX<X8XaX8X<XaX8X<X",
"aX8X8X8X8X8X8XaX8X8XaX8X8XaX8X8X8XaXI G ..F # q 1.V.g.g.f.r.1.:.} } ^ U D n n s 9 9 9 t t f A Z J ' 9.l.t.*.P b.aX8XaX8X8XaX8X8X",
"<X8XaX<X<XaX8X<XaXaX<XaXaX<X8XaX<XaXu., M v } D.K.C.t.-.^ K K A x n x s s x c r < & & < 2 h x I Y ] Z i Z P ] P E.aX<XaXaX<X8XaX",
"aX8X<X8XaX<X8XaX<X8XaX8X8XaX8X2X8XaXz.2 x >.!.L.l.-.D b j j j x x x s 2 1 5 6 c c z n n G ( ` s.a Y P.*.b f A R 0. X>X<X8XaX8X8X",
"aX8X<XaXaX<X8XaX<X8XaX8X3XaX8X<XaXaXj.9 i.~.l. .D r , 2 2 2 r x x r z z N N M _ @.6.2.2. .;.w.t.e.z.}.$XJ.k.i.i.j.j.J.v.{.aX8X<X",
"<X8XaX<X<XaX8X<XaXaX<XaXaX<X8XaX<XaX9.:.L.w.D r , , : < < 2 z m m m W ) O.$.3.4.B.A.A.C.i.j.l.i.c.R.[.E.z.c.n.v.P.n.s.j.>X<X8XaX",
"8X8X8X8X8X8X8X8X8X8X8X8X8X8X8X8XaX8X1.t.>.x : - : : : < 4 y m Q ! O.$.%.%.7.7.N.Z.Z.G.U.T.J.J.J.J.P.J.J.H.l.t.e.e.t.c..X8X8X8X8X",
"aXaX<XaXaX<X8XaX<X8XaX3X<XaX8X<XaXk.^ I h - + + + : , 6 m m ! +.+.+.&.7.3._ ..5.F.Z.U.T.I.I.R.E.R.I.J.H.k.j.P.].{.<XaX8X<XaX8X<X",
"<X8XaX8X<XaX8X<XaXaX<XaXaX<X8XaXv.G Z f : @ @ - 4 r z ! ~ ! _ @.o.+.4.p.} ^ {  .A.Q.Q.!.[.[.[.~.].].}..X=XaX8X8XaXaX<XaXaX<X8XaX",
"8X8XaX8X8XaX8X8XaX8X8X8X8X8XaX>X^ Z f 3 o o - 5 c M _ @.` :.1.2.2.6.>.:.R L k I U.OXOXOXOXOX$X=X<X8XaX8X8XaX8X<X8X8X8X8X8X8X8XaX",
"aXaX<XaXaX<X8XaX<X8XaX<X<XaXaXy.F p 3 O O : 6 c / #.2.1.w.r.t.r.' J T L J B 7 :.@XOXOX$X=X9X8X<XaXaX<XaXaX<X8XaX<X8XaX<X<XaX8X<X",
"2X8XaX8X8XaX8X<XaX8X<X8X8X8X].U V 7 * + : c ( 6.5.p.g.p.t.r.l.' = e C J L l f c.J.x.>X8XaX8X8XaX8X8XaX8X8XaX8X<XaX8X<X8XaX<X8XaX",
"<X8XaX8X3XaX8X<XaX8X<XaXaX8X{ k i < ; , E N.Z.Y.Y.Y.K.H.S.S.h.8 $ g C J V e q.R.*.z.8X8XaX<X8XaX<X8XaX8X3XaX8X<XaX8X<XaXaX<X8XaX",
"aXaX<XaXaX<X8XaX<X8XaX<X8X{.A V 0 : 4 M B.Y.W././.Q.Q.~.K.U.C $ 8 V V f = I $Xh.Y <XaX<X<XaX8X<XaXaX<XaXaX<X8XaX<X8XaX<X<XaX8X<X",
"8X8X8X8X8X8X8X8X8X8X8X8XaX,.k i r 4 E 8.Y.W.(.(.(.(./.W.!.P.X # 7 k f 7 b r.j.L _.aX8X8X8X8X8X8X8X8X8X8X8X8X8X8X8X8X8X8X8X8X8X8X",
"<X8XaX2X<XaX8X<XaXaX<XaX<XA q 0 4 ) B.^./.).+X).).#X~.$XaXR . 7 f p 7 s.( ( H s.aX8X<XaXaX<X8XaX<X8XaX2X<XaX8X<XaXaX<XaXaX<X8XaX",
"aX8X<XaXaX<X8XaX<X8XaXaXu.q 0 2 E F./.+X@X:X;X@XOX-X9XaXu.% q k p q n.3XD j 0.aX<X8XaX8X<XaX8X<XaXaX<XaXaX<X8XaX<X8XaX8X<XaX8X<X",
"aX8X8X8X8X8X8XaX8X8XaX3XL 7 < z B.).%X:X:X*X-X<X3X8XaXu.7 0 j A =.XXaXP.q._.aXaX8X8XaX8X8XaX8X8XaX8X8X8X8X8X8XaX8X8XaX8X8XaX8X8X",
"<X8XaX<X<XaX8X<XaX8X2X Xt & < ` ).%X:X&X(.4X8X<XaXaXz.F L ] u.XX8X8XaX<X8XaX8X<XaXaX<XaXaX<X8XaX<X8XaX<X<XaX8X<XaXaX<XaXaX<X8XaX",
"aX8X<XaXaX<X8XaX8X8XaXx.& & 2 6.%X;X/.[.<X8X8XaX8X8X<X X>XaXaX8XaX8X3XaX8X<X8XaX8X8XaX8X8XaX8X<XaX8X<X8XaX<X8XaX8X8XaX8X8XaX8X8X",
"aX8X<XaXaX<X8XaX<X8XaX*.. $ f k.+X!..XaXaX<X8XaX<X8XaX8X8XaX8X<XaX8X<XaXaX<X8XaX<X8XaX8X3XaX8X<XaX8X<XaXaX<X8XaX<X8XaX8X3XaX8X<X",
"<X8XaX<X<XaX8X<XaX8X8XV   j r.K.R.<XaX<X<XaX8X<XaXaX<XaXaX<X8XaX<X8XaX<X<XaX8X<XaXaX<XaXaX<X8XaX<X8XaX<X<XaX8X<XaXaX<XaXaX<X8XaX",
"8X8X8X8X8X8X8X8X8X8X8X7 7 6.l.}.aX8X8X8X8X8X8X8X8X8X8X8X8X8X8X8X8X8X8X8X8X8X8X8X8X8X8X8X8X8X8X8X8X8X8X8X8X8X8X8X8X8X8X8X8X8X8X8X",
"aXaX<XaXaX<X8XaX<X8X>Xf ^ k.<XaXaX8X<XaXaX<X8XaX<X8XaX2X<XaX8X<XaXaX<XaXaX<X8XaX<X8XaX2X<XaX8X<XaXaX<XaXaX<X8XaX<X8XaX<X<XaX8X<X",
"<X8XaX8X3XaX8X<XaXaXb.k t.*.0.`.2X8XaX3X<XaX8X<XaXaX<XaXaX<X8XaX<X8XaX8X<XaX8X<XaX8X<XaXaX<X8XaX<X8XaX<X<XaX8X<XaXaX<XaXaX<X8XaX",
"8X8XaX8X8XaX8X<XaX8XL { t.f ] P =.8XaX8X8XaX8X8XaX8X8X8X8X8X8XaX8X8XaX8X8XaX8X8X8X8X8X8X8X8X8XaX8X8XaX8X8XaX8X8XaX8X8X8X8X8X8XaX",
"aX8X<XaXaX<X8XaX XX.L ,.A Z 9.u.E.aX<XaXaX<X8XaX<X8XaX<X<XaX8X<XaXaX<XaXaX<X8XaX<X8XaX<X<XaX8X<XaXaX<XaXaX<X8XaX<X8XaX<X<XaX8X<X",
"<X8XaX8X8XaXaXP.P k.>.g q ] >XaXaX8XaX8X8XaX8X<XaX8X<X8XaX<X8XaX<X8XaX8X8XaX8X2XaX8X<XaXaX<X8XaX8X8XaX8X8XaX8X3XaX8X<X8XaX<X8XaX",
"<X8XaX8X<XaXu.8 q.w.,.P 9.8XaXaX<X8XaX8X<XaX8X<XaX8X<XaXaX<X8XaX<X8XaX8X3XaX8X<XaX8X<XaXaX<X8XaX<X8XaX8X<XaX8X<XaX8X<XaXaX<X8XaX",
"aX8X<XaXaX9.# Z F k ].8X<XaX8X<XaXaX<XaXaX<X8XaX<X8XaX<X<XaX8X<XaXaX<XaXaX<X8XaX<X8XaX<X<XaX8X<XaXaX<XaXaX<X8XaX<X8XaX<X<XaX8X<X",
"8X8X8XaXz.X 7 h C n.aX8X8X8X8X8X8X8X8X8X8X8X8X8X8X8X8X8X8X8X8X8X8X8X8X8X8X8X8X8X8X8X8X8X8X8X8X8X8X8X8X8X8X8X8X8X8X8X8X8X8X8X8X8X",
"<X8XaX$X= $ 9._.aXaX<XaXaX<X8XaX<X8XaX2X<XaX8X<XaXaX<XaXaX<X8XaX<X8XaX3X<XaX8X<XaXaX<XaXaX<X8XaX<X8XaX2X<XaX8X<XaXaX<XaXaX<X8XaX",
"aX8XaX=.. m.aXaX<X<XaX<X<XaX8X<XaX8X<XaXaX<X8XaX<X8XaX<X<XaX8X<XaX8X<XaXaX<X8XaX<X8XaX<X<XaX8X<XaX8X<XaXaX<X8XaX<X8XaX<X<XaX8X<X",
"aX8XaXs.s.aX8X8X8X8XaX8X8XaX8X8X8X8X8X8X8X8X8XaX8X8XaX8X8XaX8X8X8X8X8X8X8X8X8XaX8X8XaX8X8XaX8X8X8X8X8X8X8X8X8XaX8X8XaX8X8XaX8X8X",
"<X8XaX8X8XaX8X<XaXaX<XaXaX<X8XaX<X8XaX<X<XaX8X<XaXaX<XaXaX<X8XaX<X8XaX<X<XaX8X<XaXaX<XaXaX<X8XaX<X8XaX<X<XaX8X<XaXaX<XaXaX<X8XaX",
"aX8X3X8X8X3X8XaX8X8XaX8X8XaX8X8XaX8X<X8XaX<X8XaX8X8XaX8X8XaX8X3XaX8X<X8XaX<X8XaX8X8XaX8X8XaX8X3XaX8X<X8XaX<X8XaX8X8XaX8X8XaX8X2X",
"aX8X<XaXaX<X8XaX<X8XaX8X3XaX8X<XaX8X<XaXaX<X8XaX<X8XaX8X3XaX8X<XaX8X<XaXaX<X8XaX<X8XaX8X3XaX8X<XaX8X<XaXaX<X8XaX<X8XaX8X2XaX8X<X",
"<X8XaX<X<XaX8X<XaXaX<XaXaX<X8XaX<X8XaX<X<XaX8X<XaXaX<XaXaX<X8XaX<X8XaX<X<XaX8X<XaXaX<XaXaX<X8XaX<X8XaX<X<XaX8X<XaXaX<XaXaX<X8XaX",
"8X8X8X8X8X8X8X8X8X8X8X8X8X8X8X8X8X8X8X8X8X8X8X8X8X8X8X8X8X8X8X8X8X8X8X8X8X8X8X8X8X8X8X8X8X8X8X8X8X8X8X8X8X8X8X8X8X8X8X8X8X8X8X8X",
"aXaX<XaXaX<X8XaX<X8XaX2X<XaX8X<XaXaX<XaXaX<X8XaX<X8XaX2X<XaX8X<XaXaX<XaXaX<X8XaX<X8XaX2X<XaX8X<XaXaX<XaXaX<X8XaX<X8XaX2X<XaX8X<X",
"<X8XaX8X<XaX8X<XaX8X<XaXaX<X8XaX<X8XaX8X<XaX8X<XaX8X<XaXaX<X8XaX<X8XaX8X<XaX8X<XaX8X<XaXaX<X8XaX<X8XaX8X<XaX8X<XaX8X<XaXaX<X8XaX",
"8X8XaX8X8XaX8X8X8X8X8X8X8X8X8XaX8X8XaX8X8XaX8X8X8X8X8X8X8X8X8XaX8X8XaX8X8XaX8X8X8X8X8X8X8X8X8XaX8X8XaX8X8XaX8X8X8X8X8X8X8X8X8XaX",
"aXaX<XaXaX<X8XaX<X8XaX<X<XaX8X<XaXaX<XaXaX<X8XaX<X8XaX<X<XaX8X<XaXaX<XaXaX<X8XaX<X8XaX<X<XaX8X<XaXaX<XaXaX<X8XaX<X8XaX<X<XaX8X<X",
"2X8XaX8X8XaX8X8XaX8X<XaXaX<X8XaX8X8XaX8X8XaX8X2XaX8X<XaXaX<X8XaX8X8XaX8X8XaX8X2XaX8X<XaXaX<X8XaX8X8XaX8X8XaX8X2XaX8X<XaXaX<X8XaX",
"<X8XaX8X2XaX8X<XaX8X<XaXaX<X8XaX<X8XaX8X3XaX8X<XaX8X<XaXaX<X8XaX<X8XaX8X3XaX8X<XaX8X<XaXaX<X8XaX<X8XaX8X3XaX8X<XaX8X<XaXaX<X8XaX",
"aX8X<XaXaX<X8XaX<X8XaX<X<XaX8X<XaXaX<XaXaX<X8XaX<X8XaX<X<XaX8X<XaXaX<XaXaX<X8XaX<X8XaX<X<XaX8X<XaXaX<XaXaX<X8XaX<X8XaX<X<XaX8X<X",
"8X8X8X8X8X8X8X8X8X8X8X8X8X8X8X8X8X8X8X8X8X8X8X8X8X8X8X8X8X8X8X8X8X8X8X8X8X8X8X8X8X8X8X8X8X8X8X8X8X8X8X8X8X8X8X8X8X8X8X8X8X8X8X8X",
"<X8XaX<X<XaX8X<XaXaX<XaXaX<X8XaX<X8XaX<X<XaX8X<XaXaX<XaXaX<X8XaX<X8XaX<X<XaX8X<XaXaX<XaXaX<X8XaX<X8XaX<X<XaX8X<XaXaX<XaXaX<X8XaX"
};
