/* XPM */
static char *resized_penguin[] = {
/* columns rows colors chars-per-pixel */
"64 64 152 2 ",
"   c None",
".  c #020202",
"X  c #080705",
"o  c #0C0A05",
"O  c #06070A",
"+  c #0B0B0B",
"@  c #100E07",
"#  c #110F0A",
"$  c #1B1606",
"%  c #1D1807",
"&  c #15130A",
"*  c #1A1608",
"=  c #1E1908",
"-  c #121212",
";  c #1F1C15",
":  c #1B1B1B",
">  c #231C06",
",  c #231D09",
"<  c #2B230C",
"1  c #322807",
"2  c #30270A",
"3  c #392E0B",
"4  c #3D3008",
"5  c #252113",
"6  c #242424",
"7  c #2E2B21",
"8  c #2C2C2C",
"9  c #323028",
"0  c #333333",
"q  c #363638",
"w  c #3C3C3C",
"e  c #443506",
"r  c #43360B",
"t  c #493A0A",
"y  c #403E38",
"u  c #54420A",
"i  c #58460B",
"p  c #5C4909",
"a  c #504111",
"s  c #644D05",
"d  c #634E0A",
"f  c #6C550B",
"g  c #745C0B",
"h  c #67561F",
"j  c #735C10",
"k  c #7C6007",
"l  c #504524",
"z  c #635424",
"x  c #695A28",
"c  c #675B32",
"v  c #7A6C3D",
"b  c #434343",
"n  c #4B4C4C",
"m  c #535353",
"M  c #5B5B5B",
"N  c #7B6F46",
"B  c #636363",
"V  c #676869",
"C  c #6C6C6C",
"Z  c #737373",
"A  c #7C7C7C",
"S  c #866806",
"D  c #8F6E06",
"F  c #876909",
"G  c #8D6E0C",
"H  c #937206",
"J  c #9A7706",
"K  c #95750C",
"L  c #98770A",
"P  c #9C7A0B",
"I  c #A27E05",
"U  c #A37F0B",
"Y  c #846F2A",
"T  c #927825",
"R  c #8F7D44",
"E  c #8C7C49",
"W  c #807654",
"Q  c #AD8607",
"!  c #A6820B",
"~  c #AC8609",
"^  c #AE880C",
"/  c #B68D07",
"(  c #B48C09",
")  c #B88E09",
"_  c #BC9106",
"`  c #BC9209",
"'  c #B48F18",
"]  c #BD9514",
"[  c #BA951B",
"{  c #9B8337",
"}  c #AA8920",
"|  c #B29020",
" . c #C29606",
".. c #C69805",
"X. c #CB9D06",
"o. c #C39708",
"O. c #CA9D08",
"+. c #D5A405",
"@. c #D9A705",
"#. c #DDAA05",
"$. c #E1AE05",
"%. c #E5B003",
"&. c #EBB403",
"*. c #F3BA02",
"=. c #F8BE02",
"-. c #FFC401",
";. c #89836D",
":. c #848484",
">. c #8C8C8C",
",. c #9B988F",
"<. c #959494",
"1. c #9C9C9C",
"2. c #A4A4A4",
"3. c #ACACAC",
"4. c #B3B1AA",
"5. c #B3B3B3",
"6. c #BBB9B2",
"7. c #BCBCBC",
"8. c #C4C4C4",
"9. c #C8C7C6",
"0. c #C9C8C5",
"q. c #CBCBCB",
"w. c #CBCACA",
"e. c #CDCDCD",
"r. c #CECECE",
"t. c #CBCBCB",
"y. c #D0D0D0",
"u. c #D3D3D3",
"i. c #D4D4D4",
"p. c #D4D4D4",
"a. c #DCDCDC",
"s. c #DBDBDB",
"d. c #E1E1E1",
"f. c #E2E2E2",
"g. c #E5E5E5",
"h. c #E6E6E6",
"j. c #E4E4E4",
"k. c #E8E8E8",
"l. c #EAEAEA",
"z. c #EEEEEE",
"x. c #ECECEC",
"c. c #F1F1F1",
"v. c #F0F0F0",
"b. c #F2F2F2",
"n. c #F5F5F5",
"m. c #F6F6F6",
"M. c #F7F7F7",
"N. c #F4F4F4",
"B. c #FBFBFB",
"V. c #F8F8F8",
"C. c #FFFFFF",
"Z. c #FFFFFF",
/* pixels */
"                                                                                                                                ",
"                                                                                                                                ",
"              + -                                     - + + -                                                                   ",
"            + . .                                     . . . .                                                                   ",
"          + . . . +                                   . . . . :                                                                 ",
"          + + - . -                                 + . n b b 3.                                        + +                     ",
"          + n 1.6 :.                                + + 7.r.>.l.>.              -                     + . . +                   ",
"          . >.c.C f.3.                              . - u.c.2.<.2.          - - + +                 + . . . . -                 ",
"        + . :.r.>.7.A + + + + +                     . + 7.1.2.7.9.          + + . . +               . w A 6 0 6                 ",
"        o . B 9.1.>.: . . . . . +                   . . 1.7.2.,.N a         . . . . .               + 3.f.1.u.>.                ",
"        . . 0 0.W 7 . . . . . . .                   . . m r.E _ $.+.j     + . . . . . +           + + 9.5.1.u.5.                ",
"        . . O x o.> . . . . . . . +                 . . + z %.-.-.-.`     . . . . . . +           + . 1.4.;.6.                  ",
"        . . . J @.% . . . . . . . .               + . . . I -.-.-.L (   + . . . . + -             + . l ] +.'                   ",
"        . . o  .*.t . . . . . . . +               + . . o  .-.-.-.! ( 5 . . . . +                 + % _ -.-.*.                  ",
"      - . . o _ -. .u < & + + + . +               + . . o / -.-.-.-.K + . . . +                   + i *.-.-.-.!       - -       ",
"      - . . . F -.-.*.o.< . . . .                 + . . . k -.-.-.+.3 . . . +                     + g O.-.-.-.f +   + . . -     ",
"      + . . . < X.=.@.d X . . . +                 + . . . , ( #.! 3 . . . .                       O p ` ` $.&.3 . - . . . +     ",
"      + . . . . < p < . . . . . +                 + . . . . * < & . . . . -                       . = ( ` O.F o . + . . . .     ",
"    + . . . . . + n b . . . . +                 + . . . . . + V >.0 . . +                       - . . < g i # O . + + . . .     ",
"    . . . . . . B l.f.n . . . +                 . . . . + . C V.V.5.+ . -                     - . . . . . O . + . + + . . +     ",
"  + . . . 6 + : r.V.V.2.. . +                 + . . . 8 w - 9.V.V.f.8 .                       . . . . . n 3.:.- . . . . .       ",
"  . . . + Z : n c.V.V.9.+ .                   . . . . b m 8 l.V.V.c.n .                     + . . . . : r.V.c.m . . . . .       ",
"+ . . . - A + Z V.V.V.f.b . -                 . . . . C 0 w c.V.V.V.:.. +                   . . . . . b c.V.V.1.+ . . . .       ",
"+ . . . 8 n . >.V.V.V.V.2.+ +                 . . . - C + n c.V.V.V.s.8 .                 + . . . . 0 B V.V.V.9.- . . . +       ",
"+ . . . w 8 . <.V.V.V.V.f.0 .                 . . . 8 w . C V.V.V.V.V.Z .                 + . . . 8 n C V.V.c.r.8 . . .         ",
"  + . . n 0 . 1.V.V.V.V.V.C .                 . . . 0 n . Z V.V.V.V.V.5.+ -               + . . . n 8 Z V.c.3.1.C - . .         ",
"  + . . 6 M + 2.V.V.V.V.V.2.+                 + . . + B - A V.V.V.V.V.u.: +                 . . . 8 w C V.V.c.V.c.B +           ",
"    o . . M : 1.V.V.V.V.V.9.-                   . . . m 0 :.V.V.V.V.V.f.8 +                 + . . + m B V.V.V.V.V.7.-           ",
"    w - . 0 8 <.V.V.V.V.V.9.-                   - . . 8 0 :.V.V.V.V.V.l.0 .                 + . . . n B c.V.V.V.V.c.b +         ",
"    m C + - + A V.V.V.V.V.3..                   6 b - + - >.V.V.V.V.V.s.: .                   . . . b M f.V.V.V.V.V.Z .         ",
"    - B b + . n c.V.V.V.V.A .                   + M C : . :.V.V.V.V.V.3.. .                   + . . b n r.V.V.V.V.V.1..         ",
"    . . + . . : u.V.V.V.c.b .                   . + : + . B V.V.V.V.V.Z .                       + . 0 6 5.V.V.V.V.V.2..         ",
"                                                                      : +                                                       ",
"                                                              + + + + . .                                             +         ",
"                                                            - . . . . . . +                                           .         ",
"                                  + -                       . . + w 6 . . .                                         . . +       ",
"                  - -             . .                     . . . m l.A . . . .                         + +         + . . +       ",
"    -           - . . + -       + . . +                   . . . 1.r.:.. . . .                       + . . +       . . . . +     ",
"  + . +         . . . . +       + . . +                 + . . . 2.Z Z : . . . .                     . . . 6       . . . .       ",
"  + . .         . + 6 - b 8     . . . +                 . . . . :.5.<.q . . . .                     . B Z 1.:.    . . . .       ",
"  + . . +     + . M 1.A 2.>.  + . . . +                 . . . . 9 { | c . . . . +                 + O 3.7.7.1.      . . .       ",
"  . . . .     + + <.7.5.9.u.0 . . . . +                 . . . . S *.-.#.u . . . .                 . . 1.5.7.5.      + . .       ",
"  + . . . -   + + 5.V.:.7.s.8 . . . .                   + . . > #.-.-.-.+.> . . . +               . . Z 0.v } P       . .       ",
"  + . . . +   + . B 6.T [ R ; . . . .                     . . e *.-.-.-.-.s . . . .               . . - Y &.-.*.G     . .       ",
"    . . . .   + . O h *.-.*.L o . . +                     . . e *.+...*.-.H . . . .               . . > +.-.-.-.P     . .       ",
"    . . . . + o . . H -.-.-.*.4 . . +                     . . % .._ P Q -.D . . . .               . . d &.*.&.#.!     . . +     ",
"    + . . . + + . o ! &.=.&.&.t . .                   + + . . . t X.&.#./ 1 . . . +               . . f #.! ( #.^     . . +     ",
"    + . . . . + . . D ! G ! ) = . .                 + . . . . . . , t r & . . . .                 . . , ( $.&.)     + . . +     ",
"      . . . . . . . r $.&.#.u . . +               + . . . . . . . . . . . . . . +                 + . . * t r % +   . . . .     ",
"      + . . . . . . + f ( d . . . +             + . . . . . . . . b >.m . . . +                   + . . . - b - .   . . . +     ",
"      + . . . . . . . - w 6 . . .               . . . . . . . . 6 u.V.f.w . +                     + . . . A l.>.+ . . . .       ",
"        . . . . . . : <.s.r.n . +               . . . . . . . . b c.V.V.2.-                       . . . : u.V.f.0 . . . +       ",
"        + . . . . + <.V.V.V.5.+ +             + . . . . . . . . n c.V.V.l.C                     + . . . n c.V.V.:.. . .         ",
"          . . . . 0 l.V.V.V.f.6 .             . . . . . + . . . C V.V.V.V.5.                  + . . . . C V.V.V.u.6 . .         ",
"          . . . . M V.V.V.V.V.M . +           . . . .   + . . . 1.V.V.9.1.Z 8                 . . . . . :.V.V.V.V.Z . +         ",
"          . . . . B V.V.V.V.V.9.- +         + . . . +   . . . . 3.V.f.3.u.s.5.B             . . . . - + <.V.V.V.V.7.- .         ",
"          . . . . m V.V.V.V.V.V.M .         . . . .     . . . + 7.V.V.V.V.V.V.s.Z           . . . + n - 3.V.V.V.V.l.w .         ",
"          . . . . Z V.V.V.V.V.V.5.+ +       . . . .     . . . - r.V.V.V.V.V.V.V.r.        + . . . 0 n + 7.V.V.V.V.V.:.. +       ",
"        + . . . : r.V.V.V.V.V.V.l.w .       + . . +     . . . : s.V.V.V.V.V.V.V.V.3.      + . . . : b - r.V.V.V.V.V.r.- .       ",
"        + . . . M V.V.V.V.V.V.V.V.>.+         + .       . . . : s.V.V.V.V.V.V.V.V.s.        . . . . n 6 r.V.V.V.V.V.c.w .       ",
"        + . . . <.V.V.V.V.V.V.V.V.r.-                 + . . . - r.V.V.V.V.V.V.V.V.c.<.      + . . . 0 w u.V.V.V.V.V.V.Z .       ",
"        + . . - 9.V.V.V.V.V.V.V.V.s.6 +               + . . . + 5.V.V.V.V.V.V.V.V.V.5.        . . . 6 m s.V.V.V.V.V.V.<..       ",
"        . . . 6 f.V.V.V.V.V.V.V.V.s.6 -               + . . . . Z V.V.V.V.V.V.V.V.V.1.        + . . 6 m s.V.V.V.V.V.V.1.. +     ",
"        . . . w c.V.V.V.V.V.V.V.V.9.- -               + . . . . 0 l.V.V.V.V.V.V.V.c.            + . 8 b s.V.V.V.V.V.V.5.- -     "
};
