/* XPM */
static char *C_tile[] = {
"16 16 2 1",
"C c White",
". c None",
"................",
"................",
"................",
".......CCCCC....",
"......C.....C...",
".....C..........",
"....C...........",
"....C...........",
"....C...........",
".....C..........",
"......C.....C...",
".......CCCCC....",
"................",
"................",
"................",
"................"
};
