/* XPM */
static char *z_c[] = {
/* columns rows colors chars-per-pixel */
"64 64 2 1 ",
"  c light blue",
". c Yellow",
/* pixels */
"                                                                ",
"                                                                ",
"                                                                ",
"                                                                ",
"                                                                ",
"                                                                ",
"                                                                ",
"                                                                ",
"                                                                ",
"                                                                ",
"                                                                ",
"                                                                ",
"                             ..................                 ",
"                            ....................                ",
"                            ....................                ",
"                           ......................               ",
"                         ....                  ....             ",
"                        ....                    ....            ",
"                        ....                    ....            ",
"                       ....                      ..             ",
"                     ....                                       ",
"                    ....                                        ",
"                    ....                                        ",
"                   ....                                         ",
"                 ....                                           ",
"                ....                                            ",
"                ....                                            ",
"                ....                                            ",
"                ....                                            ",
"                ....                                            ",
"                ....                                            ",
"                ....                                            ",
"                ....                                            ",
"                ....                                            ",
"                ....                                            ",
"                 ....                                           ",
"                   ....                                         ",
"                    ....                                        ",
"                    ....                                        ",
"                     ....                                       ",
"                       ....                      ..             ",
"                        ....                    ....            ",
"                        ....                    ....            ",
"                         ....                  ....             ",
"                           ......................               ",
"                            ....................                ",
"                            ....................                ",
"                             ..................                 ",
"                                                                ",
"                                                                ",
"                                                                ",
"                                                                ",
"                                                                ",
"                                                                ",
"                                                                ",
"                                                                ",
"                                                                ",
"                                                                ",
"                                                                ",
"                                                                ",
"                                                                ",
"                                                                ",
"                                                                ",
"                                                                "
};
