/* XPM */
static char *z_Exit[] = {
/* columns rows colors chars-per-pixel */
"64 64 2 1 ",
"  c light blue",
". c Blue",
/* pixels */
" .............................................................. ",
" .............................................................. ",
" .............................................................. ",
" .............................................................. ",
" .....                                                          ",
" .....                                                          ",
" ....                                                           ",
" ....                                                           ",
" ....                                                           ",
" ....                                                           ",
" ....                                                           ",
" ....                                                           ",
" ....                                                           ",
" ....                                                           ",
" ....                                                           ",
" ....                                                           ",
" ....                                                           ",
" ....                                                           ",
" ....                                                           ",
" ....                                                           ",
" ....                                                           ",
" ....                                                           ",
" ....                                                           ",
" ....                                                           ",
" ....                                                           ",
" ....                                                           ",
" ....                                                           ",
" ....                                                           ",
" ....                                                           ",
" ....                                                           ",
" .....                                                          ",
" .....                                                          ",
" .............................................................. ",
" .............................................................. ",
" .............................................................. ",
" .............................................................. ",
" ......                                                         ",
" ....                                                           ",
" ....                                                           ",
" ....                                                           ",
" ....                                                           ",
" ....                                                           ",
" ....                                                           ",
" ....                                                           ",
" ....                                                           ",
" ....                                                           ",
" ....                                                           ",
" ....                                                           ",
" ....                                                           ",
" ....                                                           ",
" ....                                                           ",
" ....                                                           ",
" ....                                                           ",
" ....                                                           ",
" ....                                                           ",
" ....                                                           ",
" ....                                                           ",
" ....                                                           ",
" .....                                                          ",
" .....                                                          ",
" .............................................................. ",
" .............................................................. ",
" .............................................................. ",
" .............................................................. "
};
